<svg height="339pt" viewBox="0 -20 339.22533 339" width="339pt" xmlns="http://www.w3.org/2000/svg"><path d="m282.972656 64.425781h-226.945312c-3.136719 0-5.675782 2.542969-5.675782 5.675781v158.863282c0 3.132812 2.542969 5.671875 5.675782 5.671875h226.945312c3.132813 0 5.671875-2.539063 5.671875-5.671875v-158.863282c0-3.132812-2.539062-5.675781-5.671875-5.675781zm-215.921875 158.863281 45.710938-63.996093 25.023437 34.976562-16.929687 29.019531zm66.949219 0 69.539062-119.230468 69.554688 119.230468zm143.296875-147.515624v132.199218l-68.851563-118.015625c-1.820312-2.707031-5.492187-3.425781-8.199218-1.605469-.632813.425782-1.179688.972657-1.605469 1.605469l-54.59375 93.617188-26.664063-37.292969c-1.058593-1.507812-2.777343-2.414062-4.621093-2.421875-1.832031 0-3.550781.882813-4.617188 2.375l-46.441406 65.019531v-135.480468zm0 0"/><path d="m338.4375 210.019531-15.75-58.785156v-103.828125c0-9.398438-7.621094-17.019531-17.019531-17.019531h-15.386719l-4.726562-17.726563c-2.472657-9.042968-11.785157-14.398437-20.84375-11.980468l-110.933594 29.707031h-120.445313c-9.398437 0-17.019531 7.621093-17.019531 17.019531v19.808594l-3.699219.984375c-9.050781 2.472656-14.425781 11.769531-12.050781 20.847656l15.75 58.785156v103.828125c0 9.398438 7.621094 17.019532 17.019531 17.019532h15.386719l4.726562 17.722656c2.441407 9.0625 11.765626 14.429687 20.828126 11.988281.003906-.003906.011718-.003906.015624-.003906l110.933594-29.707031h120.445313c9.398437 0 17.019531-7.621094 17.019531-17.023438v-19.804688l3.699219-.988281c9.050781-2.46875 14.425781-11.765625 12.050781-20.84375zm-70.785156-198.355469c3.011718-.804687 6.105468.96875 6.933594 3.96875l3.9375 14.753907h-80.882813zm-256.125 74.464844c-.789063-3.035156 1.007812-6.140625 4.027344-6.972656l.757812-.199219v25.03125zm59.816406 201.300782c-3.007812.804687-6.101562-.96875-6.933594-3.96875l-3.945312-14.78125h80.894531zm239.996094-35.769532c0 3.132813-2.539063 5.671875-5.671875 5.671875h-272.335938c-3.132812 0-5.671875-2.539062-5.671875-5.671875v-204.253906c0-3.132812 2.539063-5.671875 5.671875-5.671875h272.335938c3.132812 0 5.671875 2.539063 5.671875 5.671875zm12.101562-31.773437-.753906.21875v-25.03125l4.785156 17.859375c.773438 3.027344-1.019531 6.121094-4.03125 6.953125zm0 0"/><path d="m135.457031 138.183594c12.535157 0 22.695313-10.160156 22.695313-22.691406 0-12.535157-10.160156-22.695313-22.695313-22.695313-12.535156 0-22.695312 10.160156-22.695312 22.695313 0 12.53125 10.160156 22.691406 22.695312 22.691406zm0-34.039063c6.265625 0 11.347657 5.078125 11.347657 11.347657 0 6.265624-5.082032 11.34375-11.347657 11.34375s-11.347656-5.078126-11.347656-11.34375c0-6.269532 5.082031-11.347657 11.347656-11.347657zm0 0"/></svg>