<?xml version="1.0" encoding="iso-8859-1"?>
<!-- Generator: Adobe Illustrator 19.0.0, SVG Export Plug-In . SVG Version: 6.00 Build 0)  -->
<svg version="1.1" id="Capa_1" xmlns="http://www.w3.org/2000/svg" xmlns:xlink="http://www.w3.org/1999/xlink" x="0px" y="0px"
	 viewBox="0 0 512 512" style="enable-background:new 0 0 512 512;" xml:space="preserve">
<g>
	<g>
		<path d="M451,0v30h-30V0H91v30H61V0H31v512h30v-31h30v31h330v-31h30v31h30V0H451z M91,451H61v-30h30V451z M91,391H61v-30h30V391z
			 M91,331H61v-30h30V331z M91,271H61v-30h30V271z M91,211H61v-30h30V211z M91,151H61v-30h30V151z M91,91H61V60h30V91z M391,482H121
			v-61h270V482z M391,391H121V121h270V391z M391,91H121V30h270V91z M451,451h-30v-30h30V451z M451,391h-30v-30h30V391z M451,331h-30
			v-30h30V331z M451,271h-30v-30h30V271z M451,211h-30v-30h30V211z M451,151h-30v-30h30V151z M451,91h-30V60h30V91z"/>
	</g>
</g>
<g>
	<g>
		<path d="M211,167.972v176.056L343.042,256L211,167.972z M241,224.028L288.958,256L241,287.972V224.028z"/>
	</g>
</g>
<g>
</g>
<g>
</g>
<g>
</g>
<g>
</g>
<g>
</g>
<g>
</g>
<g>
</g>
<g>
</g>
<g>
</g>
<g>
</g>
<g>
</g>
<g>
</g>
<g>
</g>
<g>
</g>
<g>
</g>
</svg>
